<svg width="307" height="100" viewBox="0 0 307 100" fill="none" xmlns="http://www.w3.org/2000/svg">
<g>
<mask id="path-1-inside-1" fill="white">
<path fill-rule="evenodd" clip-rule="evenodd" d="M296.444 60.2687L306.107 50.6066L296.734 41.2342C292.59 17.7997 272.124 0 247.5 0H50C22.3857 0 -3.05176e-05 22.3858 -3.05176e-05 50C-3.05176e-05 77.6142 22.3857 100 50 100H247.5C271.595 100 291.708 82.9571 296.444 60.2687Z"/>
</mask>
<path d="M296.444 60.2687L293.508 59.6557L293.691 58.78L294.323 58.1474L296.444 60.2687ZM306.107 50.6066L308.228 48.4853L310.349 50.6066L308.228 52.7279L306.107 50.6066ZM296.734 41.2342L294.613 43.3555L293.945 42.6872L293.78 41.7566L296.734 41.2342ZM294.323 58.1474L303.985 48.4853L308.228 52.7279L298.566 62.39L294.323 58.1474ZM303.985 52.7279L294.613 43.3555L298.855 39.1128L308.228 48.4853L303.985 52.7279ZM293.78 41.7566C289.885 19.7302 270.643 3 247.5 3V-3C273.604 -3 295.295 15.8692 299.688 40.7118L293.78 41.7566ZM247.5 3H50V-3H247.5V3ZM50 3C24.0426 3 2.99997 24.0426 2.99997 50H-3.00003C-3.00003 20.7289 20.7289 -3 50 -3V3ZM2.99997 50C2.99997 75.9574 24.0426 97 50 97V103C20.7289 103 -3.00003 79.2711 -3.00003 50H2.99997ZM50 97H247.5V103H50V97ZM247.5 97C270.145 97 289.056 80.9817 293.508 59.6557L299.381 60.8817C294.361 84.9325 273.044 103 247.5 103V97Z" fill="white" mask="url(#path-1-inside-1)"/>
</g>
</svg>
