<svg width="376" height="101" viewBox="0 0 376 101" fill="none" xmlns="http://www.w3.org/2000/svg">
<g>
<mask id="path-1-inside-1" fill="white">
<path fill-rule="evenodd" clip-rule="evenodd" d="M365.338 60.7713L375.607 50.5027L365.596 40.4922C361.153 17.4278 340.861 0.00546265 316.5 0.00546265H50C22.3857 0.00546265 -3.05176e-05 22.3912 -3.05176e-05 50.0055C-3.05176e-05 77.6197 22.3857 100.005 50 100.005H316.5C340.418 100.005 360.414 83.211 365.338 60.7713Z"/>
</mask>
<path d="M365.338 60.7713L362.408 60.1282L362.596 59.2707L363.217 58.6499L365.338 60.7713ZM375.607 50.5027L377.728 48.3814L379.849 50.5027L377.728 52.6241L375.607 50.5027ZM365.596 40.4922L363.475 42.6136L362.824 41.963L362.65 41.0597L365.596 40.4922ZM363.217 58.6499L373.485 48.3814L377.728 52.6241L367.459 62.8926L363.217 58.6499ZM373.485 52.6241L363.475 42.6136L367.717 38.3709L377.728 48.3814L373.485 52.6241ZM362.65 41.0597C358.474 19.3806 339.396 3.00546 316.5 3.00546V-2.99454C342.326 -2.99454 363.832 15.4749 368.542 39.9248L362.65 41.0597ZM316.5 3.00546H50V-2.99454H316.5V3.00546ZM50 3.00546C24.0426 3.00546 2.99997 24.0481 2.99997 50.0055H-3.00003C-3.00003 20.7344 20.7289 -2.99454 50 -2.99454V3.00546ZM2.99997 50.0055C2.99997 75.9628 24.0426 97.0055 50 97.0055V103.005C20.7289 103.005 -3.00003 79.2766 -3.00003 50.0055H2.99997ZM50 97.0055H316.5V103.005H50V97.0055ZM316.5 97.0055C338.979 97.0055 357.779 81.2209 362.408 60.1282L368.268 61.4143C363.049 85.2011 341.857 103.005 316.5 103.005V97.0055Z" fill="white" mask="url(#path-1-inside-1)"/>
</g>
</svg>
