<svg width="376" height="100" viewBox="0 0 376 100" fill="none" xmlns="http://www.w3.org/2000/svg">
<g>
<mask id="path-1-inside-1" fill="white">
<path fill-rule="evenodd" clip-rule="evenodd" d="M365.338 60.7658L375.607 50.4973L365.596 40.4868C361.153 17.4223 340.861 0 316.5 0H50C22.3857 0 -3.05176e-05 22.3858 -3.05176e-05 50C-3.05176e-05 77.6142 22.3857 100 50 100H316.5C340.418 100 360.414 83.2056 365.338 60.7658Z"/>
</mask>
<path d="M365.338 60.7658L362.408 60.1228L362.596 59.2653L363.217 58.6445L365.338 60.7658ZM375.607 50.4973L377.728 48.376L379.849 50.4973L377.728 52.6186L375.607 50.4973ZM365.596 40.4868L363.475 42.6081L362.824 41.9576L362.65 41.0542L365.596 40.4868ZM363.217 58.6445L373.485 48.376L377.728 52.6186L367.459 62.8871L363.217 58.6445ZM373.485 52.6186L363.475 42.6081L367.717 38.3655L377.728 48.376L373.485 52.6186ZM362.65 41.0542C358.474 19.3752 339.396 3 316.5 3V-3C342.326 -3 363.832 15.4694 368.542 39.9193L362.65 41.0542ZM316.5 3H50V-3H316.5V3ZM50 3C24.0426 3 2.99997 24.0426 2.99997 50H-3.00003C-3.00003 20.7289 20.7289 -3 50 -3V3ZM2.99997 50C2.99997 75.9574 24.0426 97 50 97V103C20.7289 103 -3.00003 79.2711 -3.00003 50H2.99997ZM50 97H316.5V103H50V97ZM316.5 97C338.979 97 357.779 81.2155 362.408 60.1228L368.268 61.4088C363.049 85.1957 341.857 103 316.5 103V97Z" fill="white" mask="url(#path-1-inside-1)"/>
</g>
</svg>
