<?xml version="1.0" encoding="UTF-8" standalone="no"?>
<!-- Generator: Adobe Illustrator 19.1.0, SVG Export Plug-In . SVG Version: 6.00 Build 0)  -->

<svg
   xmlns:dc="http://purl.org/dc/elements/1.1/"
   xmlns:cc="http://creativecommons.org/ns#"
   xmlns:rdf="http://www.w3.org/1999/02/22-rdf-syntax-ns#"
   xmlns:svg="http://www.w3.org/2000/svg"
   xmlns="http://www.w3.org/2000/svg"
   xmlns:sodipodi="http://sodipodi.sourceforge.net/DTD/sodipodi-0.dtd"
   xmlns:inkscape="http://www.inkscape.org/namespaces/inkscape"
   version="1.1"
   id="Layer_1"
   x="0px"
   y="0px"
   viewBox="0 0 301.39999 86.000002"
   xml:space="preserve"
   sodipodi:docname="styler-logo.svg"
   width="301.39999"
   height="86"
   inkscape:version="0.92.1 r15371"><metadata
     id="metadata25"><rdf:RDF><cc:Work
         rdf:about=""><dc:format>image/svg+xml</dc:format><dc:type
           rdf:resource="http://purl.org/dc/dcmitype/StillImage" /><dc:title></dc:title></cc:Work></rdf:RDF></metadata><defs
     id="defs23" /><sodipodi:namedview
     pagecolor="#ffffff"
     bordercolor="#666666"
     borderopacity="1"
     objecttolerance="10"
     gridtolerance="10"
     guidetolerance="10"
     inkscape:pageopacity="0"
     inkscape:pageshadow="2"
     inkscape:window-width="716"
     inkscape:window-height="480"
     id="namedview21"
     showgrid="false"
     inkscape:zoom="0.39643878"
     inkscape:cx="171.45001"
     inkscape:cy="-15.749994"
     inkscape:window-x="304"
     inkscape:window-y="99"
     inkscape:window-maximized="0"
     inkscape:current-layer="Layer_1" /><style
     type="text/css"
     id="style2">
	.st0{fill:#6D6E70;}
	.st1{fill:#A41440;}
</style><path
     class="st0"
     d="M 10.3,22.8 H 0 V 67.1 H 31.5 V 58.5 H 10.3 Z M 54,50.2 h 8.3 V 58 c -1.5,0.6 -4.5,1.2 -7.4,1.2 -9.2,0 -12.3,-4.7 -12.3,-14.2 0,-9.1 2.9,-14.4 12.2,-14.4 5.1,0 8.1,1.6 10.5,4.7 l 6.4,-5.9 C 67.8,23.8 61,22.1 54.6,22.1 c -14.4,0 -21.9,7.8 -21.9,22.8 0,14.9 6.8,22.9 21.8,22.9 6.9,0 13.6,-1.8 17.3,-4.3 V 42 H 54 Z"
     id="path4"
     inkscape:connector-curvature="0"
     style="fill:#6d6e70" /><g
     id="g18"
     transform="translate(-249.5,-195.9)"><path
       class="st1"
       d="m 472.7,264 c -10.9,0 -17.1,-6.2 -17.1,-17.1 v -51 h 10.9 v 50.8 c 0,3.9 2,6.4 6.2,6.4 l 2.2,0.1 V 264 Z"
       id="path6"
       inkscape:connector-curvature="0"
       style="fill:#a41440" /><path
       class="st1"
       d="m 407.4,281.8 v -10.3 c 0,0 1.9,0 3,0 9.3,0 12.7,-11.6 13.5,-14.3 l -19,-37.6 h 12.6 l 12.2,26.1 10.9,-26.1 h 12 c 0,0 -20.8,46.2 -23.2,50.5 -1.5,2.8 -3,4.8 -4.7,6.4 -4.7,4.4 -9.9,5.4 -14.9,5.4 -0.7,0 -2.4,-0.1 -2.4,-0.1"
       id="path8"
       inkscape:connector-curvature="0"
       style="fill:#a41440" /><path
       class="st1"
       d="m 399.9,253.6 c -1.3,0 -5.7,-0.6 -5.7,-5.6 v -18.4 h 7.3 v -10 h -7.3 v -10.5 h -10.7 v 10.5 h -7 v 5 5 h 7 c 0,4.4 0,12.8 0,18.4 0,9.7 6.4,16 16.4,16 h 2.2 v -10.3 z"
       id="path10"
       inkscape:connector-curvature="0"
       style="fill:#a41440" /><path
       class="st1"
       d="m 350.4,231.1 c 0,-1.9 2,-4 5.6,-4 4.4,0 6.2,1.5 7.5,4.7 l 9.1,-1.8 v 0 c -1.9,-10.1 -11.2,-12 -17.2,-12 -10.6,0 -15.8,7 -15.8,13.3 0,16.3 23.8,12.2 23.8,19.4 0,1.6 -1.2,3.9 -6.1,3.9 -5.4,0 -7.3,-2.4 -7.7,-6 H 339 c 0.3,11.6 10.2,15 17.9,15 5.6,0 17.1,-2.1 17.1,-13.3 0.1,-14.7 -23.6,-11.3 -23.6,-19.2"
       id="path12"
       inkscape:connector-curvature="0"
       style="fill:#a41440" /><path
       class="st1"
       d="m 524.9,264 v -44.4 h 10.8 v 4 c 1,-2.7 4,-5 7.7,-5 4.9,0 7.5,3.1 7.5,3.1 l -5.2,10.1 c 0,0 -1.5,-2.5 -4.9,-2.5 -3.6,0 -5.1,3.1 -5.1,11.4 V 264 Z"
       id="path14"
       inkscape:connector-curvature="0"
       style="fill:#a41440" /><path
       class="st1"
       d="m 497.7,227.8 c 6,0 8.5,3.5 9.9,7.6 h -20.2 c 1.1,-4 4.1,-7.6 10.3,-7.6 m 9.2,21.2 c -1.4,3.3 -4.9,5 -8.7,5 -6.5,0 -10,-4.2 -11,-9.3 h 31.5 l 0.1,-2.1 c 0.4,-7.2 -3.2,-24.4 -21.3,-24.4 -13,0 -21.4,9.1 -21.4,22.8 0,13 10.2,23 21.6,23 16.1,0 19.9,-12.1 20.5,-15 z"
       id="path16"
       inkscape:connector-curvature="0"
       style="fill:#a41440" /></g></svg>