<?xml version="1.0" encoding="UTF-8" standalone="no"?>
<!-- Created with Inkscape (http://www.inkscape.org/) -->

<svg
   xmlns:dc="http://purl.org/dc/elements/1.1/"
   xmlns:cc="http://creativecommons.org/ns#"
   xmlns:rdf="http://www.w3.org/1999/02/22-rdf-syntax-ns#"
   xmlns:svg="http://www.w3.org/2000/svg"
   xmlns="http://www.w3.org/2000/svg"
   xmlns:sodipodi="http://sodipodi.sourceforge.net/DTD/sodipodi-0.dtd"
   xmlns:inkscape="http://www.inkscape.org/namespaces/inkscape"
   version="1.1"
   id="svg2"
   xml:space="preserve"
   width="275.42081"
   height="46.764339"
   viewBox="0 0 275.42081 46.764339"
   sodipodi:docname="truesteam-logo.svg"
   inkscape:version="0.92.3 (2405546, 2018-03-11)"><metadata
     id="metadata8"><rdf:RDF><cc:Work
         rdf:about=""><dc:format>image/svg+xml</dc:format><dc:type
           rdf:resource="http://purl.org/dc/dcmitype/StillImage" /><dc:title></dc:title></cc:Work></rdf:RDF></metadata><defs
     id="defs6"><clipPath
       clipPathUnits="userSpaceOnUse"
       id="clipPath18"><path
         d="M 0,54.667 H 231.333 V 0 H 0 Z"
         id="path16"
         inkscape:connector-curvature="0" /></clipPath></defs><sodipodi:namedview
     pagecolor="#ffffff"
     bordercolor="#666666"
     borderopacity="1"
     objecttolerance="10"
     gridtolerance="10"
     guidetolerance="10"
     inkscape:pageopacity="0"
     inkscape:pageshadow="2"
     inkscape:window-width="640"
     inkscape:window-height="480"
     id="namedview4"
     showgrid="false"
     inkscape:zoom="1.3487051"
     inkscape:cx="101.40255"
     inkscape:cy="23.549134"
     inkscape:window-x="0"
     inkscape:window-y="0"
     inkscape:window-maximized="0"
     inkscape:current-layer="g14" /><g
     id="g10"
     inkscape:groupmode="layer"
     inkscape:label="True Steam Logo Registered (1)"
     transform="matrix(1.3333333,0,0,-1.3333333,-15.376133,59.659672)"><g
       id="g12"><g
         id="g14"
         clip-path="url(#clipPath18)"><g
           id="g20"
           transform="translate(18.3311,29.335)"
           style="fill:#4d4d4d"><path
             d="M 0,0 V 0.006 C 0.003,-0.015 0.009,-0.12 0.009,-0.12 0.003,-0.087 0,-0.04 0,0 M 19.03,0.534 C 16.874,3.983 13.36,3.788 11.181,3.033 10.365,4.818 8.438,7.015 4.831,6.518 3.225,6.296 1.984,5.614 1.135,4.492 0.201,3.258 0.018,1.82 -0.01,0.87 -1.493,0.678 -3.396,-0.232 -3.933,-2.992 c -0.08,-0.398 -0.114,-0.784 -0.114,-1.142 0,-2.162 1.301,-3.451 2.384,-4.045 -0.281,-0.668 -0.471,-1.449 -0.459,-2.319 0.043,-2.425 1.702,-4.528 4.146,-5.228 2.493,-0.722 4.532,0.514 5.226,1.455 0.309,0.413 0.222,1.006 -0.194,1.315 -0.424,0.308 -1.013,0.216 -1.322,-0.2 -0.203,-0.273 -1.409,-1.279 -3.192,-0.767 -1.663,0.48 -2.755,1.836 -2.779,3.455 -0.032,1.674 1.073,2.873 1.462,3.162 0.42,0.31 0.506,0.899 0.191,1.315 -0.306,0.417 -0.898,0.506 -1.311,0.197 -0.225,-0.166 -0.505,-0.435 -0.79,-0.774 -0.545,0.272 -1.804,1.131 -1.4,3.221 0.494,2.567 2.684,2.434 2.93,2.411 0.284,-0.026 0.571,0.081 0.771,0.285 0.198,0.203 0.3,0.494 0.26,0.778 C 1.823,0.537 1.453,4.145 5.087,4.658 8.69,5.151 9.646,1.971 9.739,1.61 9.813,1.336 10.01,1.107 10.267,0.993 c 0.255,-0.117 0.554,-0.111 0.804,0.01 0.17,0.089 4.18,2.03 6.365,-1.463 0.718,-1.153 0.971,-2.69 0.634,-3.918 -0.156,-0.596 -0.53,-1.387 -1.4,-1.842 -0.463,-0.24 -0.636,-0.805 -0.395,-1.27 0.238,-0.46 0.808,-0.636 1.268,-0.396 1.16,0.609 1.972,1.651 2.342,3.012 0.472,1.733 0.144,3.807 -0.855,5.408 m -6.645,-5.312 c -0.289,0.423 -0.879,0.53 -1.304,0.234 -0.429,-0.297 -0.531,-0.883 -0.235,-1.309 l 5.028,-6.508 c 0.293,-0.425 2.357,-3.072 2.634,-2.859 0.241,0.179 -1.415,2.893 -1.711,3.322 z m 1.284,-9.407 -6.074,5.76 C 7.2,-8.091 6.607,-8.136 6.268,-8.536 5.936,-8.925 5.984,-9.52 6.376,-9.857 l 6.522,-5.002 c 0.397,-0.343 3.063,-2.379 3.279,-2.105 0.188,0.242 -2.11,2.443 -2.508,2.779 M -2.764,8.826 c 0,-0.022 0,-0.13 0.003,-0.133 C -2.764,8.736 -2.77,8.776 -2.77,8.826 Z M -3.255,1.331 c 0.235,0.457 0.053,1.026 -0.404,1.267 -0.16,0.086 -1.569,0.891 -1.196,2.881 0.484,2.563 2.681,2.43 2.93,2.409 0.284,-0.028 0.571,0.077 0.768,0.281 0.201,0.206 0.293,0.495 0.259,0.78 -0.052,0.41 -0.416,4.02 3.215,4.525 3.597,0.497 4.556,-2.68 4.658,-3.044 0.07,-0.278 0.268,-0.509 0.533,-0.624 0.265,-0.118 0.571,-0.101 0.824,0.034 0.148,0.081 3.51,1.873 5.571,-0.518 0.805,-0.931 1.018,-2.058 0.583,-3.085 0.006,0.009 0.013,0.016 0.019,0.022 -0.022,-0.072 -0.05,-0.139 -0.05,-0.213 0,-0.5 0.429,-0.901 0.95,-0.901 0.377,0 0.695,0.209 0.845,0.512 -0.011,-0.049 -0.005,-0.101 -0.026,-0.147 0.024,0.049 0.024,0.111 0.046,0.169 0.021,0.055 0.024,0.105 0.039,0.16 0.537,1.605 0.208,3.335 -0.984,4.714 -2.076,2.409 -5.043,2.045 -6.933,1.327 C 7.576,13.659 5.648,15.834 2.059,15.338 0.456,15.112 -0.792,14.433 -1.638,13.313 -2.569,12.08 -2.755,10.642 -2.775,9.692 -4.273,9.505 -6.182,8.594 -6.709,5.827 -6.771,5.482 -6.799,5.158 -6.799,4.843 -6.799,2.675 -5.37,1.35 -4.51,0.919 -4.047,0.687 -3.492,0.87 -3.255,1.331"
             style="fill:#4d4d4d;fill-opacity:1;fill-rule:nonzero;stroke:none"
             id="path22"
             inkscape:connector-curvature="0" /></g><g
           id="g24"
           transform="translate(181.3691,10.3115)"
           style="fill:#333333"><path
             d="m 0,0 h 4.756 v 9.982 c 0,1.144 0,3.832 2.973,3.832 2.617,0 2.648,-2.42 2.648,-3.73 V 0 h 4.757 v 8.504 c 0,2.522 0.064,5.31 2.909,5.31 2.455,0 2.711,-2.015 2.711,-3.832 V 0 h 4.757 v 9.58 c 0,1.478 0.064,3.527 -0.799,5.007 -0.35,0.676 -1.657,2.724 -4.915,2.724 -1.659,0 -3.83,-0.438 -5.172,-3.16 -0.321,0.806 -1.373,3.191 -5.075,3.191 -3.231,0 -4.474,-1.81 -4.983,-2.551 l -0.16,2.181 H -0.16 C -0.062,15.901 0,14.858 0,13.782 Z m -12.726,5.247 c 0,2.014 2.173,3.023 5.202,2.754 0,-1.816 -0.059,-3.125 -0.892,-4.201 -0.447,-0.537 -1.15,-0.975 -2.012,-0.975 -1.563,0 -2.298,1.277 -2.298,2.422 m 10.087,-5.248 c -0.285,1.416 -0.382,2.859 -0.382,4.307 l -0.03,6.82 c 0,0.775 -0.034,2.789 -1.12,4.168 -1.596,1.95 -4.405,2.184 -5.744,2.184 -1.533,0 -3.418,-0.268 -4.886,-1.379 -1.694,-1.278 -1.786,-3.091 -1.82,-3.998 h 4.63 c 0,0.4 0,0.941 0.351,1.511 0.413,0.639 1.118,0.945 1.786,0.945 0.448,0 1.695,-0.17 2.111,-1.413 0.19,-0.602 0.219,-1.143 0.219,-2.252 -1.561,0 -4.402,0 -6.382,-0.944 -2.971,-1.443 -3.418,-3.93 -3.418,-5.272 0,-1.345 0.447,-2.728 1.406,-3.732 0.639,-0.639 1.69,-1.345 4.022,-1.345 0.895,0 3.033,0 4.822,2.72 0,-0.5 0,-1.274 0.16,-2.32 z m -27.857,10.354 c 0.095,1.985 0.956,3.798 3.032,3.798 2.748,0 2.81,-3.025 2.81,-3.798 z m 10.663,-3.125 c 0.064,1.412 0.13,3.898 -0.959,6.214 -1.468,3.162 -4.214,4.103 -6.509,4.103 -1.759,0 -3.288,-0.539 -4.535,-1.412 -2.715,-1.982 -3.352,-5.276 -3.352,-8.03 0,-2.721 0.604,-5.009 2.072,-6.62 1.694,-1.851 4.309,-2.123 5.686,-2.123 2.36,0 4.466,0.672 5.651,1.988 1.308,1.443 1.468,2.889 1.53,3.695 h -4.31 c -0.447,-1.881 -1.628,-2.354 -2.81,-2.354 -3.285,0 -3.285,3.427 -3.285,4.539 z m -17.932,-3.73 c -0.573,-0.067 -0.894,-0.102 -1.591,-0.102 -2.114,0 -2.114,0.977 -2.145,2.52 v 7.663 h 3.832 v 3.294 h -3.832 v 5.142 l -4.69,-1.817 v -3.325 h -3.098 v -3.294 h 3.098 v -9.31 c 0,-1.411 0,-4.569 4.755,-4.569 0.769,0 2.138,0.099 3.671,0.537 z m -32.78,4.269 c 0.034,-2.357 0.097,-8.338 8.945,-8.338 6.381,0 9.833,3.532 9.833,7.9 0,4.738 -3.929,5.88 -7.921,6.888 -3.323,0.876 -5.012,1.277 -5.012,3.529 0,1.984 1.502,3.294 3.801,3.294 3.417,0 3.672,-2.856 3.738,-3.698 h 4.756 c 0,0.808 0,2.757 -1.312,4.504 -1.723,2.286 -4.564,2.859 -6.962,2.859 -6.417,0 -9.128,-3.532 -9.128,-7.53 0,-4.201 2.998,-5.913 8.49,-7.359 2.94,-0.741 4.378,-1.109 4.378,-3.261 0,-2.048 -1.694,-3.394 -4.378,-3.394 -4.244,0 -4.18,3.461 -4.18,4.606 z m -19.063,3.097 c 0.071,3.837 2.616,5.115 4.713,5.115 3.992,0 4.301,-3.455 4.27,-5.115 z m 12.284,-2.28 c 0.068,2.832 0.24,9.708 -7.503,9.708 -0.996,0 -3.059,-0.102 -4.71,-1.277 -2.717,-1.903 -3.409,-4.732 -3.409,-8.153 0,-5.494 2.583,-8.884 8.018,-8.884 3.473,0 5.194,1.453 5.953,2.319 1.237,1.345 1.375,2.761 1.478,3.628 h -3.236 c -0.271,-2.488 -1.959,-3.594 -4.056,-3.594 -3.545,0 -5.022,2.659 -4.955,6.253 z m -31.995,9.322 V 6.055 c 0,-3.48 1.829,-5.978 5.737,-5.978 3.402,0 4.476,1.971 5.041,3.201 l 0.064,-3.025 h 3.088 c -0.031,0.983 -0.092,2.951 -0.092,3.307 v 14.346 h -3.06 V 7.919 c 0,-0.881 0,-2.25 -0.66,-3.305 -0.852,-1.41 -2.237,-1.967 -3.721,-1.967 -3.025,0 -3.375,2.177 -3.375,3.901 v 11.358 z m -10.86,0.013 V 14.513 0.502 h 2.898 v 9.351 c 0,3.013 0.793,5.323 4.177,5.323 0.33,0 0.607,0 0.82,-0.036 0.214,-0.033 0.397,-0.069 0.549,-0.136 v 3.22 c -0.488,0.034 -1.128,0.068 -1.981,-0.071 -1.279,-0.209 -3.105,-1.015 -3.657,-3.464 l -0.06,3.23 z M -131.515,0.515 v 21.071 h -8.026 v 2.813 h 19.333 v -2.813 h -8.027 V 0.515 Z"
             style="fill:#333333;fill-opacity:1;fill-rule:nonzero;stroke:none"
             id="path26"
             inkscape:connector-curvature="0" /></g><g
           id="g28"
           transform="translate(211.7037,34.14)"><path
             d="M 0,0 H 1.099 C 1.818,0 2.462,0.136 2.462,0.858 2.462,1.186 2.275,1.465 1.94,1.598 1.777,1.663 1.472,1.695 1.03,1.695 H 0 Z m -0.907,-3.161 v 5.617 h 1.93 C 1.683,2.456 2.16,2.405 2.455,2.301 3.069,2.085 3.424,1.497 3.424,0.934 3.424,0.155 2.841,-0.57 1.818,-0.65 2.017,-0.733 2.176,-0.832 2.296,-0.947 2.522,-1.168 2.799,-1.54 3.126,-2.061 l 0.685,-1.1 H 2.705 L 2.206,-2.276 C 1.814,-1.579 1.499,-1.143 1.258,-0.968 0.94,-0.72 0.411,-0.774 0,-0.774 v -2.387 z m 2.086,7.243 c -2.358,0 -4.359,-1.903 -4.359,-4.358 0,-2.372 1.923,-4.351 4.359,-4.351 2.341,0 4.351,1.881 4.351,4.351 0,2.387 -1.928,4.358 -4.351,4.358 m 0,0.865 c 2.803,0 5.215,-2.236 5.215,-5.223 0,-2.948 -2.38,-5.216 -5.215,-5.216 -2.835,0 -5.223,2.272 -5.223,5.216 0,2.982 2.423,5.223 5.223,5.223"
             style="fill:#656263;fill-opacity:1;fill-rule:nonzero;stroke:none"
             id="path30"
             inkscape:connector-curvature="0" /></g></g></g></g></svg>