<svg width="305" height="166" viewBox="0 0 305 166" fill="none" xmlns="http://www.w3.org/2000/svg">
<g>
<mask id="path-1-inside-1" fill="white">
<path fill-rule="evenodd" clip-rule="evenodd" d="M82.9955 0.0045166C37.1583 0.0045166 0 37.1629 0 83C0 128.837 37.1583 165.995 82.9954 165.995H214.005C255.697 165.995 290.208 135.254 296.109 95.2013L305 83.6431L296.325 72.365C291.104 31.5505 256.238 0.0045166 214.005 0.0045166H82.9955Z"/>
</mask>
<path d="M296.109 95.2013L293.732 93.3722L293.255 93.9913L293.141 94.764L296.109 95.2013ZM305 83.6431L307.378 85.4721L308.785 83.6431L307.378 81.814L305 83.6431ZM296.325 72.365L293.349 72.7457L293.452 73.5508L293.947 74.1941L296.325 72.365ZM3 83C3 38.8197 38.8152 3.00452 82.9955 3.00452V-2.99548C35.5015 -2.99548 -3 35.506 -3 83H3ZM82.9954 162.995C38.8152 162.995 3 127.18 3 83H-3C-3 130.494 35.5015 168.995 82.9954 168.995V162.995ZM214.005 162.995H82.9954V168.995H214.005V162.995ZM293.141 94.764C287.454 133.366 254.187 162.995 214.005 162.995V168.995C257.206 168.995 292.963 137.142 299.077 95.6385L293.141 94.764ZM302.622 81.814L293.732 93.3722L298.487 97.0303L307.378 85.4721L302.622 81.814ZM293.947 74.1941L302.622 85.4721L307.378 81.814L298.703 70.536L293.947 74.1941ZM214.005 3.00452C254.71 3.00452 288.318 33.4095 293.349 72.7457L299.301 71.9844C293.891 29.6915 257.767 -2.99548 214.005 -2.99548V3.00452ZM82.9955 3.00452H214.005V-2.99548H82.9955V3.00452Z" fill="white" mask="url(#path-1-inside-1)"/>
</g>
</svg>
