<svg width="375" height="101" viewBox="0 0 375 101" fill="none" xmlns="http://www.w3.org/2000/svg">
<g>
<mask id="path-1-inside-1" fill="white">
<path fill-rule="evenodd" clip-rule="evenodd" d="M365.597 59.5119L374.607 50.5027L365.815 41.7114C361.864 18.0445 341.289 0.00546265 316.5 0.00546265H50C22.3857 0.00546265 -3.05176e-05 22.3912 -3.05176e-05 50.0055C-3.05176e-05 77.6197 22.3857 100.005 50 100.005H316.5C340.864 100.005 361.157 82.5798 365.597 59.5119Z"/>
</mask>
<path d="M365.597 59.5119L362.651 58.9449L362.825 58.0413L363.476 57.3906L365.597 59.5119ZM374.607 50.5027L376.728 48.3814L378.849 50.5027L376.728 52.6241L374.607 50.5027ZM365.815 41.7114L363.694 43.8327L363.014 43.1532L362.856 42.2054L365.815 41.7114ZM363.476 57.3906L372.485 48.3814L376.728 52.6241L367.719 61.6333L363.476 57.3906ZM372.485 52.6241L363.694 43.8327L367.937 39.5901L376.728 48.3814L372.485 52.6241ZM362.856 42.2054C359.142 19.9608 339.798 3.00546 316.5 3.00546V-2.99454C342.779 -2.99454 364.586 16.1281 368.774 41.2174L362.856 42.2054ZM316.5 3.00546H50V-2.99454H316.5V3.00546ZM50 3.00546C24.0426 3.00546 2.99997 24.0481 2.99997 50.0055H-3.00003C-3.00003 20.7344 20.7289 -2.99454 50 -2.99454V3.00546ZM2.99997 50.0055C2.99997 75.9628 24.0426 97.0055 50 97.0055V103.005C20.7289 103.005 -3.00003 79.2766 -3.00003 50.0055H2.99997ZM50 97.0055H316.5V103.005H50V97.0055ZM316.5 97.0055C339.398 97.0055 358.478 80.6271 362.651 58.9449L368.543 60.079C363.836 84.5325 342.329 103.005 316.5 103.005V97.0055Z" fill="white" mask="url(#path-1-inside-1)"/>
</g>
</svg>
