<svg width="306" height="101" viewBox="0 0 306 101" fill="none" xmlns="http://www.w3.org/2000/svg">
<g>
<mask id="path-1-inside-1" fill="white">
<path fill-rule="evenodd" clip-rule="evenodd" d="M50 0.00268555C22.3858 0.00268555 0 22.3885 0 50.0027C0 77.6169 22.3858 100.003 50 100.003H247.5C272.079 100.003 292.516 82.267 296.712 58.8949L305.107 50.5L296.911 42.3044C293.208 18.3451 272.496 0.00268555 247.5 0.00268555H50Z"/>
</mask>
<path d="M296.712 58.8949L294.59 56.7736L293.925 57.4389L293.759 58.3649L296.712 58.8949ZM305.107 50.5L307.228 52.6213L309.349 50.5L307.228 48.3786L305.107 50.5ZM296.911 42.3044L293.946 42.7625L294.096 43.732L294.79 44.4257L296.911 42.3044ZM3 50.0027C3 24.0453 24.0426 3.00269 50 3.00269V-2.99731C20.7289 -2.99731 -3 20.7316 -3 50.0027H3ZM50 97.0027C24.0426 97.0027 3 75.9601 3 50.0027H-3C-3 79.2738 20.7289 103.003 50 103.003V97.0027ZM247.5 97.0027H50V103.003H247.5V97.0027ZM293.759 58.3649C289.816 80.3327 270.601 97.0027 247.5 97.0027V103.003C273.557 103.003 295.217 84.2013 299.664 59.4249L293.759 58.3649ZM302.985 48.3786L294.59 56.7736L298.833 61.0162L307.228 52.6213L302.985 48.3786ZM294.79 44.4257L302.985 52.6213L307.228 48.3786L299.032 40.183L294.79 44.4257ZM247.5 3.00269C270.994 3.00269 290.466 20.2434 293.946 42.7625L299.876 41.8462C295.951 16.4468 273.999 -2.99731 247.5 -2.99731V3.00269ZM50 3.00269H247.5V-2.99731H50V3.00269Z" fill="white" mask="url(#path-1-inside-1)"/>
</g>
</svg>
