<svg width="129" height="36" viewBox="0 0 129 36" fill="none" xmlns="http://www.w3.org/2000/svg">
<g clip-path="url(#clip0)">
<path d="M4.3828 9.54418H0V28.0884H13.4037V24.4884H4.3828V9.54418ZM22.9778 21.014H26.5095V24.2791C25.8713 24.5302 24.5947 24.7814 23.3607 24.7814C19.446 24.7814 18.1269 22.814 18.1269 18.8372C18.1269 15.0279 19.3609 12.8093 23.3182 12.8093C25.4883 12.8093 26.7648 13.4791 27.7861 14.7767L30.5094 12.307C28.8499 9.96279 25.9564 9.25116 23.2331 9.25116C17.1057 9.25116 13.9143 12.5163 13.9143 18.7953C13.9143 25.0326 16.8078 28.3814 23.1905 28.3814C26.1266 28.3814 28.9775 27.6279 30.5519 26.5814V17.5814H22.9778V21.014Z" fill="#6D6E71"/>
<path d="M94.9736 28.507C90.3355 28.507 87.6973 25.9116 87.6973 21.3488V0H92.3354V21.2651C92.3354 22.8977 93.1864 23.9442 94.9736 23.9442L95.9097 23.986V28.507H94.9736Z" fill="#C00D40"/>
<path d="M67.1878 35.9582V31.6465C67.1878 31.6465 67.9963 31.6465 68.4644 31.6465C72.4216 31.6465 73.8684 26.7907 74.2088 25.6605L66.124 9.92096H71.4855L76.6768 20.8465L81.3149 9.92096H86.4211C86.4211 9.92096 77.5704 29.2605 76.5491 31.0605C75.9109 32.2326 75.2726 33.0698 74.5492 33.7396C72.5493 35.5814 70.3366 36 68.209 36C67.9112 36 67.1878 35.9582 67.1878 35.9582" fill="#C00D40"/>
<path d="M63.9961 24.1535C63.4429 24.1535 61.5707 23.9023 61.5707 21.8093V14.107H64.6769V9.92092H61.5707V5.52557H57.0177V9.92092H54.0391V12.0139V14.107H57.0177C57.0177 15.9488 57.0177 19.4651 57.0177 21.8093C57.0177 25.8698 59.741 28.507 63.9961 28.507H64.9322V24.1953L63.9961 24.1535Z" fill="#C00D40"/>
<path d="M42.9339 14.7349C42.9339 13.9396 43.7849 13.0605 45.3168 13.0605C47.189 13.0605 47.9549 13.6884 48.5081 15.028L52.3803 14.2745C51.5718 10.0466 47.6145 9.25122 45.0614 9.25122C40.551 9.25122 38.3383 12.1815 38.3383 14.8187C38.3383 21.6419 48.4656 19.9256 48.4656 22.9396C48.4656 23.6094 47.9549 24.5722 45.8699 24.5722C43.5721 24.5722 42.7637 23.5675 42.5935 22.0605H38.083C38.2107 26.9163 42.4233 28.3396 45.6997 28.3396C48.0826 28.3396 52.976 27.4605 52.976 22.7722C53.0186 16.6187 42.9339 18.0419 42.9339 14.7349" fill="#C00D40"/>
<path d="M116.976 28.507V9.92099H121.571V11.5954C121.997 10.4652 123.273 9.50238 124.848 9.50238C126.933 9.50238 128.039 10.8001 128.039 10.8001L125.826 15.028C125.826 15.028 125.188 13.9814 123.741 13.9814C122.209 13.9814 121.571 15.2791 121.571 18.7535V28.507H116.976Z" fill="#C00D40"/>
<path d="M105.612 13.3534C108.165 13.3534 109.229 14.8186 109.825 16.5348H101.229C101.697 14.8604 102.974 13.3534 105.612 13.3534ZM109.527 22.2279C108.931 23.6093 107.442 24.3209 105.825 24.3209C103.059 24.3209 101.57 22.5627 101.144 20.4279H114.548L114.59 19.5488C114.761 16.5348 113.229 9.33484 105.527 9.33484C99.9952 9.33484 96.4209 13.1441 96.4209 18.879C96.4209 24.3209 100.761 28.5069 105.612 28.5069C112.463 28.5069 114.08 23.4418 114.335 22.2279H109.527Z" fill="#C00D40"/>
</g>
<defs>
<clipPath id="clip0">
<rect width="128.25" height="36" fill="white"/>
</clipPath>
</defs>
</svg>
