<svg width="36" height="11" fill="none" xmlns="http://www.w3.org/2000/svg"><path d="M1.213 2.689H0v5.225h3.71V6.899H1.213V2.69zM6.36 5.921h.978v.92c-.177.07-.53.141-.872.141-1.083 0-1.448-.554-1.448-1.675 0-1.073.341-1.698 1.437-1.698.6 0 .954.189 1.236.554l.754-.696c-.46-.66-1.26-.86-2.014-.86-1.696 0-2.58.92-2.58 2.688 0 1.758.801 2.701 2.568 2.701.813 0 1.602-.212 2.038-.507V4.953H6.36v.968z" fill="#6D6E71"/><path d="M26.29 8.032c-1.284 0-2.015-.731-2.015-2.017V0h1.284v5.991c0 .46.236.755.73.755l.26.012v1.274h-.26zm-7.692 2.099V8.916h.354c1.095 0 1.495-1.368 1.59-1.686l-2.238-4.435h1.484l1.437 3.078 1.284-3.078h1.413s-2.45 5.449-2.733 5.956c-.176.33-.353.566-.553.755-.554.519-1.166.637-1.755.637a7.24 7.24 0 01-.283-.012m-.883-3.326c-.153 0-.671-.07-.671-.66v-2.17h.86v-1.18h-.86V1.557h-1.26v1.238h-.825v1.18h.825v2.17c0 1.144.753 1.887 1.931 1.887h.26V6.817l-.26-.012zm-5.83-2.654c0-.224.235-.471.66-.471.518 0 .73.177.883.554l1.071-.212c-.223-1.191-1.319-1.416-2.025-1.416-1.249 0-1.861.826-1.861 1.569 0 1.922 2.803 1.439 2.803 2.288 0 .189-.141.46-.719.46-.636 0-.86-.283-.906-.708h-1.249c.035 1.369 1.201 1.77 2.108 1.77.66 0 2.014-.248 2.014-1.57.012-1.733-2.78-1.332-2.78-2.264M32.38 8.032V2.795h1.272v.472c.118-.318.471-.59.907-.59.577 0 .883.366.883.366l-.612 1.191s-.177-.295-.577-.295c-.424 0-.601.366-.601 1.345v2.748H32.38zm-3.145-4.27c.706 0 1 .413 1.166.897h-2.38c.13-.472.483-.897 1.214-.897zm1.083 2.5c-.165.39-.577.59-1.025.59-.765 0-1.177-.495-1.295-1.096h3.71l.012-.248c.047-.85-.377-2.878-2.509-2.878-1.531 0-2.52 1.073-2.52 2.69 0 1.532 1.2 2.712 2.544 2.712 1.896 0 2.343-1.427 2.414-1.77h-1.33z" fill="#C00C3F"/></svg>