<svg width="140" height="41" fill="none" xmlns="http://www.w3.org/2000/svg"><path d="M4.784 10.813H0v20.604h14.632v-4H4.784V10.813zm20.299 12.744h3.855v3.628c-.697.279-2.09.558-3.437.558-4.273 0-5.713-2.186-5.713-6.605 0-4.232 1.347-6.698 5.666-6.698 2.37 0 3.763.745 4.878 2.187l2.973-2.745c-1.812-2.604-4.97-3.395-7.943-3.395-6.69 0-10.173 3.628-10.173 10.605 0 6.93 3.159 10.65 10.126 10.65 3.205 0 6.317-.836 8.036-2v-10h-8.268v3.815zm78.592 8.325c-5.063 0-7.943-2.883-7.943-7.953V.208h5.063v23.628c0 1.814.929 2.977 2.88 2.977l1.022.046v5.023h-1.022zm-30.331 8.28V35.37h1.393c4.32 0 5.9-5.395 6.271-6.651L72.183 11.23h5.852l5.667 12.14 5.063-12.14h5.574s-9.661 21.49-10.776 23.49c-.697 1.302-1.394 2.232-2.183 2.977-2.183 2.046-4.599 2.511-6.921 2.511-.326 0-1.115-.046-1.115-.046zM69.86 27.045c-.603 0-2.647-.279-2.647-2.604v-8.558h3.39V11.23h-3.39V6.348h-4.97v4.883H58.99v4.651h3.252v8.559c0 4.511 2.973 7.442 7.617 7.442h1.022v-4.791l-1.022-.047zM46.867 16.58c0-.884.93-1.86 2.602-1.86 2.044 0 2.88.697 3.483 2.186l4.227-.837c-.882-4.698-5.202-5.582-7.989-5.582-4.924 0-7.339 3.256-7.339 6.186 0 7.582 11.055 5.675 11.055 9.023 0 .744-.557 1.814-2.833 1.814-2.509 0-3.391-1.116-3.577-2.79h-4.924c.14 5.395 4.738 6.976 8.315 6.976 2.601 0 7.943-.976 7.943-6.186.046-6.837-10.962-5.256-10.962-8.93zm80.825 15.302v-20.65h5.017v1.86c.464-1.256 1.858-2.326 3.577-2.326 2.276 0 3.483 1.442 3.483 1.442l-2.415 4.698s-.697-1.163-2.276-1.163c-1.672 0-2.369 1.442-2.369 5.302v10.837h-5.017zm-12.404-16.837c2.787 0 3.948 1.628 4.599 3.535h-9.383c.511-1.86 1.904-3.535 4.784-3.535zm4.273 9.86c-.65 1.535-2.276 2.326-4.041 2.326-3.019 0-4.645-1.953-5.109-4.325h14.632l.046-.977c.186-3.349-1.486-11.349-9.894-11.349-6.038 0-9.94 4.233-9.94 10.605 0 6.046 4.738 10.697 10.033 10.697 7.478 0 9.244-5.628 9.522-6.976h-5.249z" fill="#000"/></svg>