<svg xmlns="http://www.w3.org/2000/svg" id="Layer_1" viewBox="0 0 301.39999 86.000002" width="301.4" height="86"><style id="style2">.st0{fill:#6d6e70}.st1{fill:#a41440}</style><path class="st0" d="M10.3 22.8H0v44.3h31.5v-8.6H10.3zM54 50.2h8.3V58c-1.5.6-4.5 1.2-7.4 1.2-9.2 0-12.3-4.7-12.3-14.2 0-9.1 2.9-14.4 12.2-14.4 5.1 0 8.1 1.6 10.5 4.7l6.4-5.9c-3.9-5.6-10.7-7.3-17.1-7.3-14.4 0-21.9 7.8-21.9 22.8 0 14.9 6.8 22.9 21.8 22.9 6.9 0 13.6-1.8 17.3-4.3V42H54z" id="path4" fill="#6d6e70"/><g id="g18" transform="translate(-249.5 -195.9)"><path class="st1" d="M472.7 264c-10.9 0-17.1-6.2-17.1-17.1v-51h10.9v50.8c0 3.9 2 6.4 6.2 6.4l2.2.1V264z" id="path6" fill="#a41440"/><path class="st1" d="M407.4 281.8v-10.3h3c9.3 0 12.7-11.6 13.5-14.3l-19-37.6h12.6l12.2 26.1 10.9-26.1h12s-20.8 46.2-23.2 50.5c-1.5 2.8-3 4.8-4.7 6.4-4.7 4.4-9.9 5.4-14.9 5.4-.7 0-2.4-.1-2.4-.1" id="path8" fill="#a41440"/><path class="st1" d="M399.9 253.6c-1.3 0-5.7-.6-5.7-5.6v-18.4h7.3v-10h-7.3v-10.5h-10.7v10.5h-7v10h7V248c0 9.7 6.4 16 16.4 16h2.2v-10.3z" id="path10" fill="#a41440"/><path class="st1" d="M350.4 231.1c0-1.9 2-4 5.6-4 4.4 0 6.2 1.5 7.5 4.7l9.1-1.8c-1.9-10.1-11.2-12-17.2-12-10.6 0-15.8 7-15.8 13.3 0 16.3 23.8 12.2 23.8 19.4 0 1.6-1.2 3.9-6.1 3.9-5.4 0-7.3-2.4-7.7-6H339c.3 11.6 10.2 15 17.9 15 5.6 0 17.1-2.1 17.1-13.3.1-14.7-23.6-11.3-23.6-19.2" id="path12" fill="#a41440"/><path class="st1" d="M524.9 264v-44.4h10.8v4c1-2.7 4-5 7.7-5 4.9 0 7.5 3.1 7.5 3.1l-5.2 10.1s-1.5-2.5-4.9-2.5c-3.6 0-5.1 3.1-5.1 11.4V264z" id="path14" fill="#a41440"/><path class="st1" d="M497.7 227.8c6 0 8.5 3.5 9.9 7.6h-20.2c1.1-4 4.1-7.6 10.3-7.6m9.2 21.2c-1.4 3.3-4.9 5-8.7 5-6.5 0-10-4.2-11-9.3h31.5l.1-2.1c.4-7.2-3.2-24.4-21.3-24.4-13 0-21.4 9.1-21.4 22.8 0 13 10.2 23 21.6 23 16.1 0 19.9-12.1 20.5-15z" id="path16" fill="#a41440"/></g></svg>