<svg xmlns="http://www.w3.org/2000/svg" width="275.421" height="46.764"><defs><clipPath clipPathUnits="userSpaceOnUse" id="a"><path d="M0 54.667h231.333V0H0z"/></clipPath></defs><g clip-path="url(#a)" transform="matrix(1.33333 0 0 -1.33333 -15.376 59.66)"><path d="M18.331 29.335v.006c.003-.021.01-.126.01-.126a.742.742 0 00-.01.12m19.03.534c-2.156 3.449-5.67 3.254-7.849 2.499-.816 1.785-2.743 3.982-6.35 3.485-1.606-.222-2.847-.904-3.696-2.026-.934-1.234-1.117-2.672-1.145-3.622-1.483-.192-3.386-1.102-3.923-3.862a5.814 5.814 0 01-.114-1.142c0-2.162 1.301-3.451 2.384-4.045a5.753 5.753 0 01-.459-2.319c.043-2.425 1.702-4.528 4.146-5.228 2.493-.722 4.532.514 5.226 1.455a.941.941 0 01-.194 1.315.95.95 0 01-1.322-.2c-.203-.273-1.409-1.279-3.192-.767-1.663.48-2.755 1.836-2.779 3.455-.032 1.674 1.073 2.873 1.462 3.162.42.31.506.899.191 1.315a.936.936 0 01-1.31.197 4.952 4.952 0 01-.79-.774c-.546.272-1.805 1.131-1.4 3.221.493 2.567 2.683 2.434 2.93 2.411a.966.966 0 01.77.285.94.94 0 01.26.778c-.053.41-.423 4.018 3.211 4.531 3.603.493 4.56-2.687 4.652-3.048a.95.95 0 011.332-.607c.17.089 4.18 2.03 6.365-1.463.718-1.153.971-2.69.634-3.918-.156-.596-.53-1.387-1.4-1.842a.936.936 0 01-.395-1.27.939.939 0 011.268-.396c1.16.609 1.972 1.651 2.342 3.012.472 1.733.144 3.807-.855 5.408m-6.645-5.312a.939.939 0 01-1.539-1.075l5.028-6.508c.293-.425 2.357-3.072 2.634-2.859.241.179-1.415 2.893-1.71 3.322zM32 15.15l-6.074 5.76a.941.941 0 01-1.219-1.432l6.522-5.002c.397-.343 3.063-2.379 3.28-2.105.187.242-2.11 2.443-2.509 2.779M15.567 38.161c0-.022 0-.13.003-.133-.003.043-.009.083-.009.133zm-.49-7.495a.95.95 0 01-.405 1.267c-.16.086-1.569.891-1.196 2.881.484 2.563 2.681 2.43 2.93 2.409a.946.946 0 01.768.281.955.955 0 01.26.78c-.053.41-.417 4.02 3.214 4.525 3.597.497 4.556-2.68 4.658-3.044a.943.943 0 011.357-.59c.148.081 3.51 1.873 5.571-.518.805-.931 1.018-2.058.583-3.085a.144.144 0 00.02.022c-.023-.072-.05-.139-.05-.213 0-.5.428-.901.95-.901.376 0 .694.209.844.512-.01-.049-.005-.101-.026-.147.024.049.024.111.046.169.021.055.024.105.04.16.536 1.605.207 3.335-.985 4.714-2.076 2.409-5.043 2.045-6.933 1.327-.816 1.779-2.744 3.954-6.333 3.458-1.603-.226-2.85-.905-3.697-2.025-.93-1.233-1.117-2.671-1.137-3.621-1.498-.187-3.407-1.098-3.934-3.865a5.522 5.522 0 01-.09-.984c0-2.168 1.43-3.493 2.29-3.924a.935.935 0 011.254.412" fill="#4d4d4d"/><path d="M181.37 10.312h4.755v9.982c0 1.144 0 3.832 2.973 3.832 2.617 0 2.648-2.42 2.648-3.73V10.312h4.757v8.504c0 2.522.064 5.31 2.91 5.31 2.454 0 2.71-2.016 2.71-3.833v-9.982h4.757v9.58c0 1.479.064 3.528-.799 5.008-.35.675-1.657 2.723-4.915 2.723-1.659 0-3.83-.438-5.172-3.16-.32.806-1.373 3.191-5.075 3.191-3.23 0-4.474-1.81-4.983-2.55l-.16 2.18h-4.567c.098-1.07.16-2.113.16-3.19zm-12.727 5.247c0 2.014 2.173 3.023 5.202 2.754 0-1.816-.059-3.125-.892-4.201-.447-.538-1.15-.976-2.012-.976-1.563 0-2.298 1.278-2.298 2.423m10.087-5.248c-.285 1.416-.382 2.859-.382 4.307l-.03 6.82c0 .775-.034 2.789-1.12 4.168-1.596 1.95-4.405 2.183-5.744 2.183-1.533 0-3.418-.268-4.886-1.379-1.694-1.278-1.786-3.09-1.82-3.998h4.63c0 .4 0 .941.351 1.511.413.64 1.118.945 1.786.945.448 0 1.695-.17 2.111-1.413.19-.602.22-1.143.22-2.252-1.562 0-4.403 0-6.383-.944-2.97-1.443-3.418-3.93-3.418-5.272 0-1.345.447-2.728 1.406-3.732.64-.639 1.69-1.345 4.022-1.345.895 0 3.033 0 4.822 2.72 0-.5 0-1.274.16-2.32zm-27.857 10.354c.095 1.985.956 3.798 3.032 3.798 2.748 0 2.81-3.026 2.81-3.799zm10.663-3.125c.064 1.412.13 3.898-.959 6.214-1.468 3.162-4.214 4.103-6.509 4.103a7.804 7.804 0 01-4.535-1.412c-2.715-1.982-3.352-5.276-3.352-8.03 0-2.721.604-5.01 2.072-6.62 1.694-1.851 4.31-2.123 5.686-2.123 2.36 0 4.466.672 5.651 1.988 1.308 1.443 1.468 2.889 1.53 3.695h-4.31C156.363 13.474 155.182 13 154 13c-3.285 0-3.285 3.427-3.285 4.539zm-17.932-3.73a11.306 11.306 0 00-1.59-.103c-2.115 0-2.115.977-2.146 2.52v7.663h3.832v3.294h-3.832v5.142l-4.69-1.816v-3.325h-3.098V23.89h3.098v-9.31c0-1.411 0-4.57 4.755-4.57.77 0 2.138.1 3.671.538zm-32.78 4.268c.034-2.357.097-8.338 8.945-8.338 6.381 0 9.833 3.532 9.833 7.9 0 4.738-3.929 5.88-7.92 6.888-3.324.877-5.013 1.278-5.013 3.53 0 1.984 1.502 3.294 3.801 3.294 3.417 0 3.672-2.856 3.738-3.698h4.756c0 .808 0 2.757-1.312 4.504-1.723 2.285-4.564 2.858-6.962 2.858-6.417 0-9.128-3.531-9.128-7.53 0-4.2 2.998-5.913 8.49-7.359 2.94-.74 4.378-1.109 4.378-3.26 0-2.049-1.694-3.395-4.378-3.395-4.244 0-4.18 3.461-4.18 4.606zm-19.063 3.097c.071 3.837 2.616 5.115 4.713 5.115 3.992 0 4.301-3.454 4.27-5.114zm12.284-2.28c.068 2.832.24 9.708-7.503 9.708-.996 0-3.059-.102-4.71-1.277-2.717-1.903-3.409-4.732-3.409-8.153 0-5.494 2.583-8.884 8.018-8.884 3.473 0 5.194 1.453 5.953 2.32 1.237 1.344 1.375 2.76 1.478 3.627h-3.236c-.27-2.488-1.959-3.594-4.056-3.594-3.545 0-5.022 2.66-4.955 6.253zM72.05 28.217v-11.85c0-3.48 1.83-5.979 5.737-5.979 3.402 0 4.476 1.971 5.041 3.201l.064-3.025h3.088a263.76 263.76 0 00-.092 3.307v14.346h-3.06v-9.986c0-.881 0-2.25-.66-3.305-.852-1.41-2.237-1.967-3.72-1.967-3.026 0-3.376 2.177-3.376 3.9v11.359zm-10.86.013V10.814h2.898v9.35c0 3.014.793 5.324 4.177 5.324.33 0 .607 0 .82-.036a2.29 2.29 0 00.55-.136v3.22a8.065 8.065 0 01-1.982-.071c-1.279-.21-3.105-1.015-3.657-3.464l-.06 3.23zM49.854 10.826v21.072h-8.026v2.813h19.333v-2.813h-8.027V10.827z" fill="#333"/><path d="M211.704 34.14h1.099c.719 0 1.363.136 1.363.858 0 .328-.187.607-.522.74-.163.065-.468.097-.91.097h-1.03zm-.907-3.161v5.617h1.93c.66 0 1.137-.051 1.432-.155.614-.216.969-.804.969-1.367 0-.779-.583-1.504-1.606-1.584.199-.083.358-.182.478-.297.226-.221.503-.593.83-1.114l.685-1.1h-1.106l-.5.885c-.391.697-.706 1.133-.947 1.308-.318.248-.847.194-1.258.194v-2.387zm2.086 7.243c-2.358 0-4.36-1.903-4.36-4.358a4.356 4.356 0 014.36-4.351c2.34 0 4.35 1.881 4.35 4.351a4.354 4.354 0 01-4.35 4.358m0 .865a5.202 5.202 0 005.215-5.223 5.201 5.201 0 00-5.215-5.216c-2.835 0-5.223 2.272-5.223 5.216 0 2.982 2.423 5.223 5.223 5.223" fill="#656263"/></g></svg>